<svg id="Capa_1" enable-background="new 0 0 512 512" height="512" viewBox="0 0 512 512" width="512" xmlns="http://www.w3.org/2000/svg"><g><g><path d="m512 284.131c0-16.936-9.268-32.195-24.186-39.823-15.213-7.78-34.911-11.725-58.546-11.725h-256.925c-1.85-9.232-5.949-17.62-12.098-24.455l-36.435-40.503c-9.016-10.023-21.972-16.109-36.48-17.135l-6.545-.463c-3.351-.241-6.756.232-10.024 1.328v-21.411c0-7.5-3.159-14.273-8.209-19.072 5.121-6.138 8.209-14.03 8.209-22.63 0-19.509-15.872-35.38-35.38-35.38s-35.381 15.872-35.381 35.381c0 8.601 3.088 16.492 8.209 22.63-5.05 4.8-8.209 11.572-8.209 19.072v319.191c0 5.522 4.477 10 10 10h34.515c5.158 0 9.47-3.923 9.956-9.059 1.191-12.593 7.85-47.177 24.348-62.686h26.777c5.523 0 10-4.478 10-10s-4.477-10-10-10l-85.597-.001v-88.036l133.476-.003v26.059c0 15.418 12.543 27.962 27.962 27.962h.002 302.6c2.684 0 5.387-.39 7.96-1.154v35.173h-55.106c-.008 0-.016.001-.025.001h-243.282c-5.523 0-10 4.478-10 10s4.477 10 10 10h239.595c16.433 15.466 23.135 50.083 24.349 62.686.486 5.136 4.797 9.059 9.956 9.059h34.514c5.523 0 10-4.478 10-10zm-441.215-100.079c.149-4.261-.435-8.664 3.076-11.797 3.532-3.152 7.769-2.119 12.057-1.815 9.448.669 17.409 4.32 23.022 10.561l36.435 40.504c5.906 6.564 8.739 15.714 7.976 25.761-.293 3.868-.223 7.297-3.483 10.026-2.979 2.494-6.212 2.029-9.798 1.922-10.072-.302-18.871-4.084-24.777-10.649l-36.435-40.503c-5.893-6.553-8.377-15.31-8.073-24.01zm-50.785 75.301v-129.408c0-3.486 2.836-6.322 6.322-6.322h18.115c3.486 0 6.322 2.836 6.322 6.322v129.407h-30.759zm50.76-30.391 27.338 30.391h-27.338zm-35.38-156.099c8.48 0 15.38 6.899 15.38 15.38s-6.899 15.38-15.38 15.38-15.38-6.899-15.38-15.38 6.899-15.38 15.38-15.38zm.422 366.274h-15.802v-51.744h33.532c-10.822 17.715-15.716 39.63-17.73 51.744zm145.636-125.764c-4.389 0-7.96-3.571-7.96-7.96l-.004-52.83h255.794c20.438 0 37.073 3.207 49.44 9.531 8.199 4.192 13.292 12.628 13.292 22.017v21.244c0 .013-.002.026-.002.039 0 4.389-3.571 7.96-7.96 7.96h-302.6zm294.761 125.764c-2.015-12.114-6.909-34.028-17.73-51.744h33.531v51.744z"/><path d="m158.829 373.569c-2.069-5.043-8.04-7.483-13.06-5.409-5.038 2.081-7.495 8.025-5.41 13.06 2.084 5.033 8.027 7.495 13.06 5.41 5.023-2.081 7.501-8.037 5.41-13.061z"/></g></g></svg>